<svg width="378" height="84" viewBox="0 0 378 84" fill="none" xmlns="http://www.w3.org/2000/svg">
<rect width="378" height="84" rx="14" fill="#111827"/>
<path d="M66.875 45.29C66.875 40.8567 68.1117 37.31 70.585 34.65C73.0583 31.9667 76.4417 30.625 80.735 30.625C82.1117 30.625 83.0917 30.905 83.675 31.465C84.2817 32.0017 84.585 32.8417 84.585 33.985C84.585 34.1483 84.5617 34.4633 84.515 34.93C85.3783 34.23 86.335 33.88 87.385 33.88C88.8083 33.88 90.0217 34.5217 91.025 35.805C92.0517 37.065 92.565 38.8967 92.565 41.3C92.565 43.7033 92.18 45.9083 91.41 47.915C90.64 49.9217 89.6133 51.5667 88.33 52.85C87.07 54.1333 85.6233 55.125 83.99 55.825C82.38 56.525 80.7117 56.875 78.985 56.875C75.2517 56.875 72.3 55.8133 70.13 53.69C67.96 51.5433 66.875 48.7433 66.875 45.29ZM84.34 46.935C82.8467 45.115 82.1 43.155 82.1 41.055C82.1 38.955 82.5667 37.2633 83.5 35.98C83.08 35.91 82.66 35.875 82.24 35.875C80.5833 35.875 79.1483 36.3767 77.935 37.38C75.6483 39.2467 74.505 41.8367 74.505 45.15C74.505 47.04 74.925 48.615 75.765 49.875C76.605 51.135 77.7717 51.765 79.265 51.765C80.4083 51.765 81.4467 51.3217 82.38 50.435C83.3367 49.525 83.99 48.3583 84.34 46.935ZM113.334 50.505L114.174 49.945C112.658 47.0283 111.899 43.8317 111.899 40.355C111.899 37.6483 112.564 35.35 113.894 33.46C115.248 31.57 117.149 30.625 119.599 30.625C120.883 30.625 121.968 30.8467 122.854 31.29C122.621 32.5967 122.201 34.8717 121.594 38.115C120.288 45.0917 119.634 49.0933 119.634 50.12C119.634 52.3367 120.008 53.9933 120.754 55.09C119.728 55.7667 118.783 56.2333 117.919 56.49C117.056 56.7467 115.936 56.875 114.559 56.875C113.206 56.875 111.969 56.5833 110.849 56C109.753 55.4167 108.843 54.6467 108.119 53.69C107.419 52.71 106.824 51.5083 106.334 50.085C105.471 47.5883 104.946 44.415 104.759 40.565H104.199C103.126 45.4183 102.589 48.8133 102.589 50.75C102.589 52.6867 102.939 54.215 103.639 55.335C102.239 56.385 100.781 56.91 99.2645 56.91C97.7478 56.91 96.6628 56.4783 96.0095 55.615C95.3562 54.7283 95.0295 53.4217 95.0295 51.695C95.0295 49.945 95.7645 45.01 97.2345 36.89L95.3795 33.145C97.9928 31.465 100.326 30.625 102.379 30.625C104.433 30.625 105.984 30.9867 107.034 31.71C108.084 32.41 108.819 33.4483 109.239 34.825C109.659 36.2017 109.963 37.66 110.149 39.2C110.359 40.7167 110.709 42.5483 111.199 44.695C111.713 46.8417 112.424 48.7783 113.334 50.505ZM129.684 56.91C128.307 56.91 127.292 56.4783 126.639 55.615C125.985 54.7283 125.659 53.4217 125.659 51.695C125.659 49.945 126.394 45.01 127.864 36.89L126.009 33.145C128.645 31.4417 131.049 30.59 133.219 30.59C134.595 30.59 135.447 31.2433 135.774 32.55C138.41 32.48 141.7 31.885 145.644 30.765C145.83 31.535 145.924 32.2933 145.924 33.04C145.924 34.93 145.294 36.3533 144.034 37.31C142.797 38.2667 141.199 38.745 139.239 38.745C137.909 38.745 136.602 38.465 135.319 37.905C135.132 38.955 134.805 40.67 134.339 43.05C135.202 43.2133 135.937 43.295 136.544 43.295C137.5 43.1083 138.55 42.84 139.694 42.49C139.81 42.8867 139.869 43.54 139.869 44.45C139.869 45.3367 139.507 46.0483 138.784 46.585C138.06 47.1217 137.244 47.39 136.334 47.39C135.447 47.39 134.537 47.285 133.604 47.075C133.347 48.545 133.219 49.9333 133.219 51.24H138.889C140.662 50.9833 142.447 50.5283 144.244 49.875C144.384 50.295 144.454 50.8667 144.454 51.59C144.454 52.9667 144.045 54.1917 143.229 55.265C142.435 56.3383 141.327 56.875 139.904 56.875C139.157 56.875 138.06 56.7233 136.614 56.42C135.19 56.14 134.129 55.965 133.429 55.895C132.309 56.5717 131.06 56.91 129.684 56.91ZM162.022 56.91C160.528 56.91 159.455 56.4783 158.802 55.615C158.148 54.7283 157.822 53.4217 157.822 51.695C157.822 49.945 158.557 45.01 160.027 36.89L158.172 33.145C160.808 31.4417 163.212 30.59 165.382 30.59C166.828 30.59 167.692 31.29 167.972 32.69C170.375 31.3133 172.732 30.625 175.042 30.625C176.558 30.625 177.888 30.975 179.032 31.675C180.385 32.4917 181.062 33.9033 181.062 35.91C181.062 39.2233 179.23 41.6267 175.567 43.12C179.3 43.7733 181.167 45.8617 181.167 49.385C181.167 51.6717 180.222 53.4917 178.332 54.845C176.442 56.1983 174.318 56.875 171.962 56.875C169.628 56.875 167.75 56.385 166.327 55.405C164.95 56.4083 163.515 56.91 162.022 56.91ZM173.082 48.615C173.082 47.5183 172.755 46.7133 172.102 46.2C171.472 45.6867 170.62 45.43 169.547 45.43C168.473 45.43 167.272 45.6517 165.942 46.095C165.568 48.0783 165.382 49.77 165.382 51.17C166.525 51.7067 167.715 51.975 168.952 51.975C170.188 51.975 171.18 51.6833 171.927 51.1C172.697 50.5167 173.082 49.6883 173.082 48.615ZM170.807 35.245C169.897 35.245 168.917 35.42 167.867 35.77C167.727 36.68 167.295 39.0133 166.572 42.77C168.508 42.63 170.153 42.1633 171.507 41.37C172.86 40.5533 173.537 39.3867 173.537 37.87C173.537 36.12 172.627 35.245 170.807 35.245ZM195.441 29.47C195.441 30.3567 194.974 31.1267 194.041 31.78C193.108 32.41 192.046 32.725 190.856 32.725C189.666 32.725 188.721 32.4917 188.021 32.025C187.344 31.5583 187.006 30.9283 187.006 30.135C187.006 29.0617 187.508 28.2217 188.511 27.615C189.514 27.0083 190.576 26.705 191.696 26.705C192.816 26.705 193.714 26.9383 194.391 27.405C195.091 27.8717 195.441 28.56 195.441 29.47ZM188.616 56.875C187.169 56.875 186.119 56.5133 185.466 55.79C184.813 55.0667 184.486 53.97 184.486 52.5C184.486 51.0067 185.233 47.0283 186.726 40.565L184.766 37.625C187.683 35.875 189.981 35 191.661 35C192.618 35 193.294 35.21 193.691 35.63C194.088 36.0267 194.286 36.68 194.286 37.59C194.286 37.94 193.854 39.9933 192.991 43.75C192.128 47.5067 191.696 50.19 191.696 51.8C191.696 53.41 192.058 54.53 192.781 55.16C191.474 56.3033 190.086 56.875 188.616 56.875ZM198.125 43.365C197.962 42.7117 197.88 42.105 197.88 41.545C197.88 40.4017 198.219 39.5383 198.895 38.955C199.572 38.3717 200.447 38.08 201.52 38.08C201.52 36.8667 201.205 35.5483 200.575 34.125C201.719 33.285 202.757 32.655 203.69 32.235C204.647 31.7917 205.65 31.57 206.7 31.57C207.75 31.57 208.474 31.7683 208.87 32.165C209.29 32.5383 209.5 33.1217 209.5 33.915C209.5 34.7083 209.337 35.945 209.01 37.625C209.944 37.485 210.889 37.2867 211.845 37.03C212.009 37.52 212.09 38.15 212.09 38.92C212.09 39.69 211.787 40.4133 211.18 41.09C210.597 41.7433 209.734 42.07 208.59 42.07H208.065C207.225 45.8733 206.805 48.8017 206.805 50.855C206.805 52.9083 207.167 54.3433 207.89 55.16C206.584 56.3033 205.195 56.875 203.725 56.875C202.255 56.875 201.194 56.4433 200.54 55.58C199.91 54.6933 199.595 53.3283 199.595 51.485C199.595 50.365 200.004 47.425 200.82 42.665C199.887 42.8283 198.989 43.0617 198.125 43.365ZM223.969 45.255C223.969 43.6217 224.319 41.965 225.019 40.285C225.719 38.5817 226.711 37.0067 227.994 35.56C229.277 34.1133 230.946 32.935 232.999 32.025C235.076 31.0917 237.211 30.625 239.404 30.625C241.621 30.625 243.347 31.0333 244.584 31.85C245.844 32.6667 246.474 33.7983 246.474 35.245C246.474 36.6917 245.996 37.8233 245.039 38.64C244.106 39.4333 243.032 39.83 241.819 39.83C240.606 39.83 239.509 39.5733 238.529 39.06C237.572 38.5233 236.802 37.765 236.219 36.785C234.959 37.3917 233.874 38.5817 232.964 40.355C232.054 42.1283 231.599 43.9133 231.599 45.71C231.599 47.4833 231.891 48.895 232.474 49.945C233.057 50.9717 233.886 51.485 234.959 51.485C236.032 51.485 236.977 50.9367 237.794 49.84C238.634 48.7433 239.054 47.425 239.054 45.885C241.411 45.885 243.091 46.0717 244.094 46.445C245.121 46.8183 245.634 47.6233 245.634 48.86C245.634 50.7967 244.584 52.6167 242.484 54.32C240.384 56.0233 237.747 56.875 234.574 56.875C231.401 56.875 228.834 55.895 226.874 53.935C224.937 51.975 223.969 49.0817 223.969 45.255ZM265.641 37.66C266.947 37.66 268.067 38.185 269.001 39.235C269.957 40.285 270.436 41.8133 270.436 43.82C270.436 45.8033 270.086 47.6467 269.386 49.35C268.686 51.03 267.764 52.4067 266.621 53.48C265.477 54.5533 264.182 55.3933 262.736 56C261.289 56.5833 259.807 56.875 258.291 56.875C255.234 56.875 252.819 56.035 251.046 54.355C249.272 52.675 248.386 50.4467 248.386 47.67C248.386 43.9133 249.587 40.8683 251.991 38.535C254.417 36.1783 257.497 35 261.231 35C262.071 35 262.911 35.0933 263.751 35.28C264.007 36.05 264.147 36.925 264.171 37.905C264.661 37.7417 265.151 37.66 265.641 37.66ZM261.336 42.525C261.336 41.8717 261.487 41.1367 261.791 40.32C262.117 39.5033 262.631 38.85 263.331 38.36C260.251 39.0133 258.127 40.2617 256.961 42.105C255.957 43.6917 255.456 45.325 255.456 47.005C255.456 48.685 255.794 50.0383 256.471 51.065C257.171 52.0683 258.057 52.57 259.131 52.57C261.511 52.57 263.191 51.0183 264.171 47.915C262.281 46.7483 261.336 44.9517 261.336 42.525ZM285.06 29.47C285.06 30.3567 284.593 31.1267 283.66 31.78C282.727 32.41 281.665 32.725 280.475 32.725C279.285 32.725 278.34 32.4917 277.64 32.025C276.963 31.5583 276.625 30.9283 276.625 30.135C276.625 29.0617 277.127 28.2217 278.13 27.615C279.133 27.0083 280.195 26.705 281.315 26.705C282.435 26.705 283.333 26.9383 284.01 27.405C284.71 27.8717 285.06 28.56 285.06 29.47ZM278.235 56.875C276.788 56.875 275.738 56.5133 275.085 55.79C274.432 55.0667 274.105 53.97 274.105 52.5C274.105 51.0067 274.852 47.0283 276.345 40.565L274.385 37.625C277.302 35.875 279.6 35 281.28 35C282.237 35 282.913 35.21 283.31 35.63C283.707 36.0267 283.905 36.68 283.905 37.59C283.905 37.94 283.473 39.9933 282.61 43.75C281.747 47.5067 281.315 50.19 281.315 51.8C281.315 53.41 281.677 54.53 282.4 55.16C281.093 56.3033 279.705 56.875 278.235 56.875ZM291.349 56.875C289.973 56.875 288.958 56.5133 288.304 55.79C287.651 55.0667 287.324 54.11 287.324 52.92C287.324 51.73 287.558 49.7933 288.024 47.11C288.514 44.4267 289.016 41.9767 289.529 39.76L287.709 36.96C290.019 35.6533 292.154 35 294.114 35C296.074 35 297.054 35.8867 297.054 37.66C297.054 38.8267 296.786 40.0167 296.249 41.23L296.599 41.405C299.096 37.135 302.269 35 306.119 35C308.943 35 310.354 36.4117 310.354 39.235C310.354 40.4483 310.004 42.5017 309.304 45.395C308.628 48.2883 308.289 50.47 308.289 51.94C308.289 53.41 308.534 54.4833 309.024 55.16C307.788 56.3033 306.481 56.875 305.104 56.875C302.421 56.875 301.079 55.4283 301.079 52.535C301.079 51.4617 301.429 49.6417 302.129 47.075C302.829 44.5083 303.179 42.84 303.179 42.07C303.179 41.02 302.783 40.495 301.989 40.495C301.336 40.495 300.589 40.7867 299.749 41.37C298.909 41.93 298.093 42.7 297.299 43.68C296.529 44.6367 295.876 45.8617 295.339 47.355C294.803 48.825 294.534 50.33 294.534 51.87C294.534 53.3867 294.779 54.4833 295.269 55.16C294.033 56.3033 292.726 56.875 291.349 56.875Z" fill="white"/>
</svg>
